<?xml version="1.0" encoding="utf-8"?>
<!-- Generator: Adobe Illustrator 16.0.0, SVG Export Plug-In . SVG Version: 6.00 Build 0)  -->
<!DOCTYPE svg PUBLIC "-//W3C//DTD SVG 1.1//EN" "http://www.w3.org/Graphics/SVG/1.1/DTD/svg11.dtd">
<svg version="1.1" id="Layer_1" xmlns="http://www.w3.org/2000/svg" xmlns:xlink="http://www.w3.org/1999/xlink" x="0px" y="0px"
	 width="1278px" height="354px" viewBox="0 0 1278 354" enable-background="new 0 0 1278 354" xml:space="preserve">
<g>
	<path fill="#CBEBFB" d="M116.687,161.184C116.687,101.611,108.891,46,95.535,0H0v354h84.908
		C104.668,303,116.687,235.152,116.687,161.184z"/>
	<path fill="#CBEBFB" d="M804.458,161.184C804.458,235.152,831.5,303,875.964,354H1278V0H852.052
		C821.998,46,804.458,101.611,804.458,161.184z"/>
	<path fill="#CBEBFB" d="M429.308,321.932c0-70.965-55.973-128.555-125.048-128.555c-69.067,0-125.049,57.621-125.049,128.586
		c0,11.027,1.354,22.037,3.896,32.037h242.305C427.954,344,429.308,332.96,429.308,321.932z"/>
	<path fill="#CBEBFB" d="M741.934,161.184C741.934,101.611,734.137,46,720.778,0H512.991c-13.358,46-21.154,101.611-21.154,161.184
		c0,73.969,12.02,141.816,31.782,192.816h186.53C729.913,303,741.934,235.152,741.934,161.184z"/>
</g>
<rect x="87.863" y="73.812" fill="none" width="644.854" height="484.664"/>
</svg>
