<?xml version="1.0" encoding="utf-8"?>
<!-- Generator: Adobe Illustrator 16.0.0, SVG Export Plug-In . SVG Version: 6.00 Build 0)  -->
<!DOCTYPE svg PUBLIC "-//W3C//DTD SVG 1.1//EN" "http://www.w3.org/Graphics/SVG/1.1/DTD/svg11.dtd">
<svg version="1.1" id="Layer_1" xmlns="http://www.w3.org/2000/svg" xmlns:xlink="http://www.w3.org/1999/xlink" x="0px" y="0px"
	 width="1286px" height="1092px" viewBox="0 0 1286 1092" enable-background="new 0 0 1286 1092" xml:space="preserve">
<g>
	<defs>
		<rect id="SVGID_1_" x="-1235.871" y="1189.074" width="1295.84" height="671.753"/>
	</defs>
	<clipPath id="SVGID_2_">
		<use xlink:href="#SVGID_1_"  overflow="visible"/>
	</clipPath>
	<path clip-path="url(#SVGID_2_)" fill="#FDCF9C" d="M-1322.193,2674.289c-181.969,0-329.496-64.512-329.496-144.087
		c0-79.577,147.527-144.091,329.497-144.091c181.968,0,329.481,64.514,329.481,144.091
		C-992.711,2609.777-1140.225,2674.289-1322.193,2674.289z M1240.465,3394.746c181.975,0,329.5-306.43,329.5-684.428
		c0-378.014-147.525-684.43-329.5-684.43c-181.969,0-329.473,306.416-329.473,684.43
		C910.992,3088.316,1058.496,3394.746,1240.465,3394.746z M471.676,3250.658c0-79.582-147.512-144.094-329.48-144.094
		c-181.979,0-329.49,64.512-329.49,144.093c0,79.585,147.512,144.089,329.49,144.089
		C324.164,3394.746,471.676,3330.242,471.676,3250.658z M691.326,3070.543c80.875,0,146.449-225.784,146.449-504.312
		c0-278.536-65.574-504.313-146.449-504.313s-146.43,225.777-146.43,504.313C544.896,2844.759,610.451,3070.543,691.326,3070.543z
		 M-992.711,3070.535c0-179.061-147.512-324.197-329.482-324.197c-181.975,0-329.496,145.137-329.496,324.197
		c0,179.078,147.521,324.211,329.496,324.211C-1140.223,3394.746-992.711,3249.613-992.711,3070.535z M471.676,2350.085
		c0-179.058-147.512-324.196-329.48-324.196c-181.982,0-329.489,145.139-329.489,324.195
		c-0.001,179.074,147.507,324.205,329.489,324.205C324.164,2674.289,471.676,2529.158,471.676,2350.085z M-1358.806,2169.977
		c0-79.584-65.562-144.088-146.438-144.088c-80.883,0-146.445,64.504-146.445,144.088c0,79.588,65.562,144.086,146.445,144.086
		C-1424.368,2314.062-1358.806,2249.564-1358.806,2169.977z M105.572,2890.426c0-79.586-65.555-144.088-146.432-144.088
		s-146.436,64.502-146.436,144.088c0,79.589,65.559,144.089,146.436,144.089S105.572,2970.016,105.572,2890.426z M471.676,2890.426
		c0-79.586-65.562-144.088-146.441-144.088c-80.877,0-146.434,64.502-146.434,144.088c0,79.59,65.557,144.089,146.434,144.089
		C406.113,3034.515,471.676,2970.016,471.676,2890.426z M-626.617,1809.759c0-79.585-65.562-144.085-146.438-144.085
		c-80.877,0-146.431,64.5-146.431,144.085c0,79.586,65.554,144.085,146.431,144.085
		C-692.179,1953.844-626.617,1889.345-626.617,1809.759z M-260.522,1809.759c0-79.585-65.558-144.085-146.435-144.085
		c-80.872,0-146.433,64.5-146.433,144.085c0,79.586,65.561,144.085,146.433,144.085
		C-326.08,1953.844-260.522,1889.345-260.522,1809.759z M837.775,3250.658c0-79.595-65.564-144.094-146.441-144.094
		s-146.438,64.499-146.438,144.094c0,79.588,65.561,144.088,146.438,144.088S837.775,3330.246,837.775,3250.658z M837.775,729.102
		c0-79.579-147.516-144.096-329.484-144.096c-181.971,0-329.49,64.517-329.49,144.096s147.52,144.084,329.49,144.084
		C690.26,873.186,837.775,808.681,837.775,729.102z M142.175,1953.844c181.976,0,329.501-225.786,329.501-504.301
		c0-278.53-147.525-504.313-329.501-504.313c-181.965,0-329.469,225.783-329.469,504.313
		C-187.294,1728.058-39.79,1953.844,142.175,1953.844z M-1651.689,909.186c0,179.059,311.43,324.223,695.592,324.223
		c384.168,0,695.575-145.164,695.575-324.223c0-179.047-311.407-324.18-695.575-324.18
		C-1340.26,585.006-1651.689,730.139-1651.689,909.186z M-992.71,1809.765c0-79.579-147.515-144.091-329.482-144.091
		c-181.976,0-329.497,64.512-329.497,144.09c0,79.576,147.521,144.08,329.497,144.08
		C-1140.225,1953.844-992.71,1889.341-992.71,1809.765z M691.326,1953.844c80.875,0,146.449-225.776,146.449-504.301
		c0-278.527-65.573-504.309-146.449-504.309c-80.875,0-146.43,225.781-146.43,504.309
		C544.896,1728.067,610.451,1953.844,691.326,1953.844z M1569.966,909.203c0-179.064-147.51-324.197-329.479-324.197
		c-181.983,0-329.494,145.133-329.494,324.197c0,179.073,147.511,324.205,329.494,324.205
		C1422.456,1233.408,1569.966,1088.276,1569.966,909.203z M1569.966,1629.645c0-179.061-147.51-324.195-329.479-324.195
		c-181.983,0-329.494,145.135-329.494,324.195c0,179.073,147.51,324.199,329.494,324.199
		C1422.455,1953.844,1569.965,1808.718,1569.966,1629.645z M-1358.806,1449.537c0-79.58-65.562-144.088-146.438-144.088
		c-80.883,0-146.445,64.508-146.445,144.088c0,79.589,65.562,144.086,146.445,144.087
		C-1424.368,1593.624-1358.806,1529.126-1358.806,1449.537z M105.573,729.094c0-79.578-65.555-144.088-146.433-144.088
		c-80.877,0-146.435,64.51-146.435,144.088c0,79.59,65.558,144.092,146.435,144.092C40.019,873.186,105.573,808.684,105.573,729.094
		z"/>
</g>
<g>
	<path fill="#FFD549" d="M1039.213,686.617c0,109.812,89.022,198.811,198.823,198.811c16.535,0,32.964-2.031,47.964-5.835V493.645
		c-15-3.804-31.429-5.835-47.964-5.835C1128.235,487.81,1039.213,576.805,1039.213,686.617z"/>
	<path fill="#FFD549" d="M542.184,686.617c0,109.812,89.006,198.811,198.803,198.811c109.802,0,198.811-88.998,198.811-198.811
		S850.788,487.81,740.986,487.81C631.189,487.81,542.184,576.805,542.184,686.617z"/>
	<path fill="#FFD549" d="M438.933,0H0v388.373C225,385.957,410.381,218,438.933,0z"/>
	<path fill="#FFD549" d="M0,487.857V1092h438.879C410.148,753,225,491.591,0,487.857z"/>
</g>
</svg>
